<?xml version="1.0" encoding="UTF-8"?>
<svg id="Layer_2" data-name="Layer 2" xmlns="http://www.w3.org/2000/svg" viewBox="0 0 406.67 408.06">
  <defs>
    <style>
      .cls-1 {
        fill: #0ca7b7;
        stroke-width: 0px;
      }
    </style>
  </defs>
  <g id="Layer_1-2" data-name="Layer 1">
    <g>
      <path class="cls-1" d="m203.85,408.06c-47.22,0-92.9-16.41-130.22-47.67-24.19-20.26-43.66-46.15-56.3-74.87C3.9,255.03-1.77,222.4.48,188.54c3.3-49.68,25.42-96.5,62.29-131.84C99.64,21.36,147.35,1.24,197.1.06c65.6-1.56,126.21,27.08,166.32,78.56,40.37,51.81,53.26,118.54,35.35,183.08-9.2,33.14-27.83,63.97-53.9,89.15-25.97,25.09-57.39,42.74-90.86,51.03-16.72,4.14-33.54,6.18-50.17,6.18ZM197.19,3.56l.08,3.5c-48,1.14-94.05,20.56-129.65,54.7C32.01,95.89,10.65,141.08,7.46,189.01c-2.17,32.72,3.3,64.24,16.27,93.7,12.21,27.74,31.02,52.75,54.39,72.32,48.75,40.82,112.25,55.42,174.22,40.06,32.27-8,62.59-25.04,87.68-49.27,25.17-24.32,43.15-54.05,52.02-85.99,17.31-62.38,4.87-126.86-34.13-176.9C319.17,33.21,260.62,5.56,197.27,7.06l-.08-3.5Z"/>
      <path class="cls-1" d="m314.85,133.92c-.6-2.75-4.29-4.92-6.75-5.75-27.87,1.61-200.15-2.1-210.46,0-2.32.47-5.06,3.37-5.75,5.75,1.36,18.62-1.78,135.1,0,141.97,1.33,5.13,18.71,3.97,31.24,4.25,61.6,1.38,123.35-1.2,184.97,0,3.32-1.02,5.11-1.48,6.75-4.75-1.16-19.43,1.52-134.57,0-141.47Zm-209.21.75q98.11.37,196.21.75-49.62,31.87-99.23,63.74c-32.36-21.12-64.85-42.02-96.98-63.49v-1Zm69.24,56.24q-37.37,34.37-74.74,68.74-.25-58.99-.5-117.98,37.62,24.62,75.24,49.24Zm-75.24,82.24c25.4-27.57,55.07-50.96,82.49-76.49,2.22-.26,17.39,11.67,19,12,5.58,1.13,12.53-7.24,18-9q39.37,36.62,78.74,73.24l-198.21.25Zm207.46-4.5q-39.87-37.12-79.74-74.24,39.87-26.12,79.74-52.24v126.48Z"/>
    </g>
  </g>
</svg>